<svg width="50" height="50" viewBox="0 0 50 50" fill="none" xmlns="http://www.w3.org/2000/svg">
<g clip-path="url(#clip0_34240_917)">
<path d="M9.14172 17.2583C8.55422 17.9604 7.61672 18.5125 6.67922 18.4333C6.56256 17.4854 7.02089 16.4792 7.55839 15.8562C8.14589 15.1354 9.17089 14.625 10.0001 14.5833C10.098 15.5708 9.71672 16.5375 9.14172 17.2583ZM9.98964 18.6208C8.63339 18.5417 7.46881 19.4021 6.82714 19.4021C6.17089 19.4021 5.18547 18.6604 4.11047 18.6812C2.71464 18.7021 1.41672 19.5 0.704224 20.775C-0.762442 23.3208 0.322974 27.0937 1.73756 29.1667C2.43131 30.1937 3.26256 31.3187 4.35631 31.2792C5.38964 31.2396 5.80006 30.5979 7.05006 30.5979C8.31047 30.5979 8.67089 31.2792 9.76672 31.2604C10.898 31.2396 11.6105 30.2333 12.3042 29.2062C13.0959 28.0396 13.4188 26.9062 13.4376 26.8458C13.4167 26.825 11.2501 25.9875 11.2292 23.4604C11.2105 21.3458 12.9376 20.3396 13.0167 20.2812C12.0417 18.8187 10.5167 18.6604 9.98964 18.6208ZM17.8334 15.7583V31.1521H20.198V25.8896H23.4688C26.4563 25.8896 28.5563 23.8146 28.5563 20.8146C28.5563 17.8125 26.4959 15.7583 23.548 15.7583H17.8313H17.8334ZM20.198 17.7729H22.923C24.973 17.7729 26.1438 18.8771 26.1438 20.8229C26.1438 22.7687 24.973 23.8854 22.9126 23.8854H20.1959V17.7708L20.198 17.7729ZM32.873 31.2687C34.3584 31.2687 35.7355 30.5104 36.3605 29.3042H36.4084V31.1521H38.5959V23.4896C38.5959 21.2687 36.8376 19.8354 34.1334 19.8354C31.623 19.8354 29.7688 21.2875 29.7001 23.2812H31.8292C32.0042 22.3333 32.873 21.7125 34.0646 21.7125C35.5105 21.7125 36.3209 22.3937 36.3209 23.6479V24.4958L33.3709 24.675C30.6271 24.8417 29.1417 25.9771 29.1417 27.9521C29.1417 29.9458 30.6751 31.2687 32.873 31.2687ZM33.5084 29.4437C32.248 29.4437 31.4459 28.8312 31.4459 27.8937C31.4459 26.925 32.2188 26.3625 33.6938 26.2729L36.3188 26.1062V26.975C36.3188 28.4167 35.1126 29.4437 33.5084 29.4437ZM41.5167 35.3396C43.8209 35.3396 44.9042 34.45 45.8501 31.7542L50.0001 19.9833H47.598L44.8146 29.0771H44.7667L41.9834 19.9833H39.5126L43.5146 31.1917L43.3001 31.8729C42.9396 33.0271 42.3542 33.4708 41.3084 33.4708C41.123 33.4708 40.7626 33.45 40.6146 33.4312V35.2792C40.7521 35.3187 41.3376 35.3375 41.5146 35.3375L41.5167 35.3396Z" fill="black"/>
</g>
<defs>
<clipPath id="clip0_34240_917">
<rect width="50" height="50" fill="white"/>
</clipPath>
</defs>
</svg>
