<svg width="50" height="50" viewBox="0 0 50 50" fill="none" xmlns="http://www.w3.org/2000/svg">
<path d="M37.3333 43.75H12.6667C12.3785 43.7509 12.0932 43.692 11.829 43.5771C11.5647 43.4621 11.3271 43.2936 11.1313 43.0821C10.9355 42.8706 10.7857 42.6209 10.6914 42.3485C10.5971 42.0762 10.5603 41.7873 10.5833 41.5L12.3542 18.5833C12.3962 18.0602 12.6341 17.5721 13.0203 17.2168C13.4065 16.8615 13.9127 16.665 14.4375 16.6667H35.5625C36.0873 16.665 36.5935 16.8615 36.9797 17.2168C37.366 17.5721 37.6039 18.0602 37.6458 18.5833L39.4167 41.5C39.4397 41.7873 39.4029 42.0762 39.3086 42.3485C39.2143 42.6209 39.0645 42.8706 38.8687 43.0821C38.6729 43.2936 38.4353 43.4621 38.1711 43.5771C37.9068 43.692 37.6215 43.7509 37.3333 43.75Z" fill="black"/>
<path d="M37.3333 43.75H12.6667C12.3785 43.7509 12.0932 43.692 11.829 43.5771C11.5647 43.4621 11.3271 43.2936 11.1313 43.0821C10.9355 42.8706 10.7857 42.6209 10.6914 42.3485C10.5971 42.0762 10.5603 41.7873 10.5833 41.5L12.3542 18.5833C12.3962 18.0602 12.6341 17.5721 13.0203 17.2168C13.4065 16.8615 13.9127 16.665 14.4375 16.6667H35.5625C36.0873 16.665 36.5935 16.8615 36.9797 17.2168C37.366 17.5721 37.6039 18.0602 37.6458 18.5833L39.4167 41.5C39.4397 41.7873 39.4029 42.0762 39.3086 42.3485C39.2143 42.6209 39.0645 42.8706 38.8687 43.0821C38.6729 43.2936 38.4353 43.4621 38.1711 43.5771C37.9068 43.692 37.6215 43.7509 37.3333 43.75Z" stroke="black" stroke-width="2.08333" stroke-linecap="round" stroke-linejoin="round"/>
<path d="M18.75 22.9167V12.5C18.75 10.8424 19.4085 9.25269 20.5806 8.08058C21.7527 6.90848 23.3424 6.25 25 6.25C26.6576 6.25 28.2473 6.90848 29.4194 8.08058C30.5915 9.25269 31.25 10.8424 31.25 12.5V22.9167" stroke="black" stroke-width="2.08333" stroke-linecap="round" stroke-linejoin="round"/>
</svg>
