<svg width="50" height="50" viewBox="0 0 50 50" fill="none" xmlns="http://www.w3.org/2000/svg">
<path d="M37.3848 40.7815C37.3848 42.6676 35.8565 44.1958 33.9705 44.1958H3.61426C1.7291 44.1958 0.199901 42.6676 0.199901 40.7815V38.0524H37.3848V40.7815Z" fill="black"/>
<path d="M3.12998 5.8042H36.0262H37.1839C37.6917 5.8042 38.3799 5.8042 39.3503 5.8042C45.2319 5.8042 50 10.5723 50 16.454C50 22.3356 45.2222 26.7705 39.3502 27.1048C38.2141 27.1694 37.2221 27.0519 36.3535 26.7931C35.3546 29.9055 33.5029 32.6354 31.0521 34.6844H6.13164C2.38594 31.5521 0 26.8488 0 21.5838V8.93428C0 7.20508 1.40176 5.8042 3.12998 5.8042ZM37.1838 20.3897C37.8299 20.7466 38.5602 20.9671 39.3502 20.9671C41.8422 20.9671 43.8625 18.9468 43.8625 16.4539C43.8625 13.9621 41.8422 11.9417 39.3502 11.9417C38.5602 11.9417 37.8299 12.1622 37.1838 12.5181V20.3897Z" fill="black"/>
</svg>
