<svg width="50" height="50" viewBox="0 0 50 50" fill="none" xmlns="http://www.w3.org/2000/svg">
<path d="M40.512 5.66038H31.6035V2.83019C31.6035 1.26981 30.3337 0 28.7733 0H21.2262C19.6658 0 18.396 1.26981 18.396 2.83019V5.66038H9.4875C7.6375 5.66038 6.13184 7.16604 6.13184 9.01604V13.2075H8.01863H41.9809H43.8677V9.01604C43.8677 7.16604 42.362 5.66038 40.512 5.66038ZM29.7167 5.66038H20.2828V2.83019C20.2828 2.30943 20.7064 1.88679 21.2262 1.88679H28.7733C29.2932 1.88679 29.7167 2.30943 29.7167 2.83019V5.66038Z" fill="black"/>
<path d="M8.01852 46.4821C8.01852 48.4217 9.59682 50 11.5364 50H38.4619C40.4025 50 41.9798 48.4217 41.9798 46.4821V15.0943H8.01758V46.4821H8.01852Z" fill="black"/>
</svg>
