<svg width="50" height="50" viewBox="0 0 50 50" fill="none" xmlns="http://www.w3.org/2000/svg">
<path d="M8.25623 15.0729C6.72569 15.073 5.2253 15.4986 3.92261 16.302C2.61992 17.1055 1.56621 18.2553 0.879147 19.6229C0.301065 20.7732 0 22.0428 0 23.3302C0 24.6176 0.301065 25.8872 0.879147 27.0375C1.56621 28.4052 2.61992 29.5549 3.92261 30.3584C5.2253 31.1619 6.72569 31.5874 8.25623 31.5875C10.4854 31.5875 12.3604 30.8542 13.7291 29.5938C15.2875 28.1563 16.1875 26.0312 16.1875 23.5187C16.187 22.9559 16.1382 22.3941 16.0416 21.8396H8.25831V25.0188H12.7166C12.6259 25.5266 12.4333 26.0108 12.1504 26.4423C11.8676 26.8737 11.5003 27.2434 11.0708 27.5292C10.3291 28.0313 9.37498 28.3188 8.25831 28.3188C6.10415 28.3188 4.27706 26.8667 3.6229 24.9104C3.2774 23.8853 3.2774 22.7751 3.6229 21.75C4.27706 19.7917 6.10415 18.3417 8.25831 18.3417C9.4354 18.3224 10.5728 18.7669 11.425 19.5792L13.7833 17.225C12.289 15.8205 10.3068 15.0492 8.25623 15.0729ZM21.8 16.2188V30.5938H23.6458V24.7708H26.6979C27.9541 24.7708 29.0104 24.3625 29.8687 23.5458C30.296 23.1628 30.6354 22.692 30.8638 22.1655C31.0921 21.6391 31.204 21.0695 31.1916 20.4958C31.2003 19.9251 31.0868 19.3591 30.8586 18.8359C30.6304 18.3127 30.2929 17.8444 29.8687 17.4625C29.4487 17.0557 28.9522 16.7362 28.408 16.5224C27.8637 16.3085 27.2825 16.2046 26.6979 16.2167L21.8 16.2188ZM26.8562 17.9896C27.1784 17.9952 27.4961 18.0654 27.7906 18.196C28.0851 18.3266 28.3504 18.515 28.5708 18.75C28.8055 18.9783 28.9921 19.2514 29.1195 19.553C29.2469 19.8547 29.3126 20.1788 29.3126 20.5063C29.3126 20.8337 29.2469 21.1578 29.1195 21.4595C28.9921 21.7611 28.8055 22.0342 28.5708 22.2625C28.3348 22.5068 28.0504 22.6992 27.7358 22.8273C27.4212 22.9554 27.0833 23.0163 26.7437 23.0063H23.6458V17.9896H26.7437C26.7812 17.9887 26.8187 17.9887 26.8562 17.9896ZM35.4479 20.4375C33.6937 20.4375 32.3708 21.0792 31.475 22.3646L33.1021 23.3875C33.7021 22.5188 34.5187 22.0833 35.55 22.0833C36.2079 22.0753 36.8447 22.3155 37.3333 22.7563C37.5738 22.9551 37.7671 23.2051 37.899 23.488C38.0309 23.7709 38.0981 24.0796 38.0958 24.3917V24.8125C37.3875 24.4104 36.4833 24.2104 35.3875 24.2104C34.1021 24.2104 33.075 24.5125 32.3062 25.1146C31.5354 25.7146 31.1521 26.525 31.1521 27.5417C31.1437 27.9992 31.2375 28.4528 31.4268 28.8694C31.616 29.2861 31.8958 29.6552 32.2458 29.95C32.975 30.5917 33.8812 30.9146 34.9646 30.9146C36.2354 30.9146 37.2521 30.3521 38.0166 29.2271H38.0958V30.5917H39.8625V24.5313C39.8625 23.2604 39.4666 22.2604 38.6791 21.5313C37.8875 20.8021 36.8125 20.4375 35.4479 20.4375ZM40.1625 20.7583L44.2166 29.9708L41.9291 34.9292H43.8354L50 20.7563H47.9896L45.1396 27.8208H45.0979L42.1687 20.7583H40.1625ZM35.6916 25.6917C36.7208 25.6917 37.525 25.9208 38.1 26.3792C38.1 27.1542 37.7937 27.8292 37.1833 28.4063C36.6324 28.9573 35.8855 29.2675 35.1062 29.2688C34.5856 29.2787 34.0776 29.1079 33.6687 28.7854C33.4785 28.6478 33.3238 28.4667 33.2177 28.2573C33.1115 28.0478 33.0569 27.8161 33.0583 27.5813C33.0583 27.0458 33.3083 26.6021 33.8146 26.2333C34.3146 25.8729 34.9416 25.6917 35.6916 25.6917Z" fill="black"/>
</svg>
