<svg width="50" height="50" viewBox="0 0 50 50" fill="none" xmlns="http://www.w3.org/2000/svg">
<path d="M25 0C14.6453 0 6.25 8.39531 6.25 18.75C6.25 22.8273 7.58672 26.5688 9.80859 29.6328C9.84844 29.7063 9.85469 29.7883 9.9 29.8586L22.4 48.6086C22.9797 49.4781 23.9563 50 25 50C26.0437 50 27.0203 49.4781 27.6 48.6086L40.1 29.8586C40.1461 29.7883 40.1516 29.7063 40.1914 29.6328C42.4133 26.5688 43.75 22.8273 43.75 18.75C43.75 8.39531 35.3547 0 25 0ZM25 25C21.5484 25 18.75 22.2016 18.75 18.75C18.75 15.2984 21.5484 12.5 25 12.5C28.4516 12.5 31.25 15.2984 31.25 18.75C31.25 22.2016 28.4516 25 25 25Z" fill="black"/>
</svg>
