<svg width="50" height="50" viewBox="0 0 50 50" fill="none" xmlns="http://www.w3.org/2000/svg">
<path fill-rule="evenodd" clip-rule="evenodd" d="M6.25 18.75C9.70178 18.75 12.5 21.5482 12.5 25C12.5 28.4518 9.70178 31.25 6.25 31.25C2.79822 31.25 0 28.4518 0 25C0 21.5482 2.79822 18.75 6.25 18.75ZM43.75 18.75C47.2018 18.75 50 21.5482 50 25C50 28.4518 47.2018 31.25 43.75 31.25C40.2982 31.25 37.5 28.4518 37.5 25C37.5 21.5482 40.2982 18.75 43.75 18.75ZM25.566 18.75C29.0178 18.75 31.816 21.5482 31.816 25C31.816 28.4518 29.0178 31.25 25.566 31.25C22.1142 31.25 19.316 28.4518 19.316 25C19.316 21.5482 22.1142 18.75 25.566 18.75Z" fill="black"/>
</svg>
