<svg width="50" height="50" viewBox="0 0 50 50" fill="none" xmlns="http://www.w3.org/2000/svg">
<path fill-rule="evenodd" clip-rule="evenodd" d="M43.75 2C43.75 0.895432 42.8546 0 41.75 0H8.25C7.14543 0 6.25 0.89543 6.25 2V48C6.25 49.1046 7.14543 50 8.25 50H16.75C17.8546 50 18.75 49.1046 18.75 48V39.5C18.75 38.3954 19.6454 37.5 20.75 37.5H29.25C30.3546 37.5 31.25 38.3954 31.25 39.5V48C31.25 49.1046 32.1454 50 33.25 50H41.75C42.8546 50 43.75 49.1046 43.75 48V2ZM15.625 11.375C15.625 10.2704 16.5204 9.375 17.625 9.375H19.875C20.9796 9.375 21.875 10.2704 21.875 11.375V13.625C21.875 14.7296 20.9796 15.625 19.875 15.625H17.625C16.5204 15.625 15.625 14.7296 15.625 13.625V11.375ZM21.875 23.875C21.875 22.7704 20.9796 21.875 19.875 21.875H17.625C16.5204 21.875 15.625 22.7704 15.625 23.875V26.125C15.625 27.2296 16.5204 28.125 17.625 28.125H19.875C20.9796 28.125 21.875 27.2296 21.875 26.125V23.875ZM28.125 11.375C28.125 10.2704 29.0204 9.375 30.125 9.375H32.375C33.4796 9.375 34.375 10.2704 34.375 11.375V13.625C34.375 14.7296 33.4796 15.625 32.375 15.625H30.125C29.0204 15.625 28.125 14.7296 28.125 13.625V11.375ZM34.375 23.875C34.375 22.7704 33.4796 21.875 32.375 21.875H30.125C29.0204 21.875 28.125 22.7704 28.125 23.875V26.125C28.125 27.2296 29.0204 28.125 30.125 28.125H32.375C33.4796 28.125 34.375 27.2296 34.375 26.125V23.875Z" fill="#2761DE"/>
</svg>
