<svg width="50" height="50" viewBox="0 0 50 50" fill="none" xmlns="http://www.w3.org/2000/svg">
<path d="M14.4112 35.1613C14.4036 35.0352 14.3792 34.919 14.3792 34.7928V33.7119C14.3792 33.1974 14.431 32.6903 14.5348 32.208C14.5348 32.208 16.1966 28.6016 16.9824 24.3644C16.1218 21.4209 15.3405 17.7577 15.3405 14.1264C15.3405 13.283 15.3787 12.4667 15.4321 11.6627C14.3106 9.75813 12.7954 8.6796 11.1215 8.6796C7.66532 8.6796 4.86084 13.2507 4.86084 20.3547C4.86084 26.0388 7.71425 32.2078 7.71425 32.2078C7.81493 32.6902 7.86689 33.1972 7.86689 33.7117V34.7926C7.86689 36.1408 7.38163 37.3677 6.6248 37.9292L2.09444 40.9295C1.04151 41.7162 0.29229 43.2843 0.0833058 45.1296L0.00547387 46.7447C-0.0341745 47.5858 0.142778 48.4144 0.496782 49.0304C0.849222 49.6512 1.34522 50 1.86553 50H9.2706L9.57421 43.6752L9.59403 43.5045C9.96483 40.1876 11.3168 37.3676 13.2057 35.9578L14.4112 35.1613Z" fill="black"/>
<path d="M49.9167 45.1296C49.7092 43.2843 48.9599 41.716 47.9071 40.9295L43.3737 37.9292C42.6169 37.3677 42.1347 36.1408 42.1347 34.7926V33.7117C42.1347 33.1972 42.185 32.6902 42.2888 32.2078C42.2888 32.2078 45.1406 26.0388 45.1406 20.3547C45.1406 13.2507 42.3376 8.6796 38.8754 8.6796C37.2046 8.6796 35.6894 9.75813 34.5647 11.6676C34.6197 12.4691 34.6578 13.2828 34.6578 14.1263C34.6578 17.755 33.8781 21.4183 33.019 24.3617C33.8033 28.5989 35.4681 32.2078 35.4681 32.2078C35.5687 32.6902 35.6222 33.1972 35.6222 33.7117V34.7926C35.6222 34.9188 35.5962 35.035 35.5886 35.1612L36.7116 35.9033C38.68 37.3627 40.0319 40.1825 40.4073 43.4995L40.4257 43.6727L40.7278 50H48.1359C48.6562 50 49.1521 49.6512 49.5031 49.0304C49.8571 48.4144 50.0342 47.5858 49.9944 46.7447L49.9167 45.1296Z" fill="black"/>
<path d="M35.9244 39.0273L30.4404 35.3937C29.5249 34.711 28.9405 33.2268 28.9405 31.5993V30.2884C28.9405 29.67 29.0015 29.0541 29.1282 28.4679C29.1282 28.4679 32.5767 21.0077 32.5767 14.1263C32.5767 5.5282 29.1847 0 24.9992 0C20.8152 0 17.4217 5.52836 17.4217 14.1263C17.4217 21.0077 20.8732 28.4679 20.8732 28.4679C20.9969 29.0541 21.0609 29.67 21.0609 30.2884V31.5993C21.0609 33.2268 20.472 34.711 19.5579 35.3937L14.0739 39.0273C12.7998 39.9746 11.8919 41.8743 11.6417 44.1104L11.3594 49.9998H24.9992H38.639L38.3598 44.1104C38.1064 41.8745 37.1985 39.9748 35.9244 39.0273Z" fill="black"/>
</svg>
