<svg width="50" height="50" viewBox="0 0 50 50" fill="none" xmlns="http://www.w3.org/2000/svg">
<path fill-rule="evenodd" clip-rule="evenodd" d="M0 4C0 1.79086 1.79086 0 4 0H46C48.2091 0 50 1.79086 50 4V46C50 48.2091 48.2091 50 46 50H4C1.79086 50 0 48.2091 0 46V4ZM7.14286 10.7143C7.14286 8.74184 8.74184 7.14286 10.7143 7.14286H39.2857C41.2582 7.14286 42.8571 8.74184 42.8571 10.7143C42.8571 12.6867 41.2582 14.2857 39.2857 14.2857H10.7143C8.74184 14.2857 7.14286 12.6867 7.14286 10.7143ZM21.4286 25C21.4286 23.0276 19.8296 21.4286 17.8571 21.4286H10.7143C8.74184 21.4286 7.14286 23.0276 7.14286 25C7.14286 26.9724 8.74184 28.5714 10.7143 28.5714H17.8571C19.8296 28.5714 21.4286 26.9724 21.4286 25ZM21.4286 39.2857C21.4286 37.3133 19.8296 35.7143 17.8571 35.7143H10.7143C8.74184 35.7143 7.14286 37.3133 7.14286 39.2857C7.14286 41.2582 8.74184 42.8571 10.7143 42.8571H17.8571C19.8296 42.8571 21.4286 41.2582 21.4286 39.2857ZM32.1429 42.8571C30.1704 42.8571 28.5714 41.2582 28.5714 39.2857C28.5714 37.3133 30.1704 35.7143 32.1429 35.7143H39.2857C41.2582 35.7143 42.8571 37.3133 42.8571 39.2857C42.8571 41.2582 41.2582 42.8571 39.2857 42.8571H32.1429ZM32.1429 28.5714C30.1704 28.5714 28.5714 26.9724 28.5714 25C28.5714 23.0276 30.1704 21.4286 32.1429 21.4286H39.2857C41.2582 21.4286 42.8571 23.0276 42.8571 25C42.8571 26.9724 41.2582 28.5714 39.2857 28.5714H32.1429Z" fill="black"/>
<path d="M48 4H2V16H48V4Z" fill="black"/>
</svg>
