<svg width="50" height="50" viewBox="0 0 50 50" fill="none" xmlns="http://www.w3.org/2000/svg">
<path d="M46.6667 41.6667H3.33333C1.49306 41.6667 0 40.1736 0 38.3333V11.6667C0 9.82638 1.49306 8.33333 3.33333 8.33333H46.6667C48.5069 8.33333 50 9.82638 50 11.6667V38.3333C50 40.1736 48.5069 41.6667 46.6667 41.6667ZM24.7778 28.8361L24.2792 31.9611C25.3764 32.4305 26.6528 32.7042 27.9931 32.7042C28.1 32.7042 28.2056 32.7028 28.3111 32.6986H28.2958C28.4181 32.7055 28.5597 32.7097 28.7042 32.7097C30.2444 32.7097 31.6722 32.2264 32.8444 31.4028L32.8208 31.418C33.8847 30.6292 34.5681 29.3778 34.5681 27.9667C34.5681 27.9597 34.5681 27.9528 34.5681 27.9458C34.5681 26.4181 33.5458 25.15 31.5306 24.1694C30.9389 23.8806 30.4333 23.5778 29.9583 23.2361L29.9903 23.2583C29.7153 23.0778 29.5319 22.7792 29.5139 22.4361V22.4333C29.5361 22.0722 29.7431 21.7639 30.0403 21.6L30.0458 21.5972C30.4375 21.3694 30.9069 21.2347 31.4097 21.2347C31.4681 21.2347 31.5264 21.2361 31.5847 21.2403H31.5764H31.6875C31.7194 21.2403 31.7569 21.2389 31.7944 21.2389C32.6889 21.2389 33.5375 21.4319 34.3028 21.7778L34.2639 21.7625L34.5889 21.9361L35.0875 18.9208C34.15 18.55 33.0625 18.3347 31.925 18.3347C31.9028 18.3347 31.8792 18.3347 31.8569 18.3347H31.8611C31.7722 18.3306 31.6681 18.3278 31.5639 18.3278C30.0417 18.3278 28.6306 18.8097 27.4764 19.6292L27.4986 19.6139C26.4542 20.3583 25.7806 21.5639 25.7806 22.9278V22.9347C25.7667 24.4042 26.825 25.6736 28.9278 26.7125C29.4833 26.9555 29.9625 27.2528 30.3917 27.6097L30.3819 27.6014C30.625 27.8069 30.7819 28.1083 30.7944 28.4458V28.4486V28.4514C30.7944 28.8944 30.5306 29.275 30.15 29.4458L30.1431 29.4486C29.7264 29.668 29.2319 29.7958 28.7069 29.7958C28.6861 29.7958 28.6639 29.7958 28.6431 29.7958H28.6458C28.6153 29.7958 28.5778 29.7958 28.5417 29.7958C27.3514 29.7958 26.2236 29.5319 25.2125 29.0597L25.2611 29.0805L24.7847 28.8417L24.7778 28.8361ZM38.8403 30.4208H43.4444C43.5185 30.7384 43.6634 31.4329 43.8792 32.5042H47.2222L44.3139 18.5722H41.5361C41.4875 18.5681 41.4306 18.5653 41.3722 18.5653C40.5917 18.5653 39.9236 19.0486 39.6514 19.7319L39.6472 19.7444L34.3139 32.5042H38.0917L38.85 30.4222L38.8403 30.4208ZM20.6819 18.5722L18.4236 32.5042H22.0264L24.2833 18.5722H20.6819ZM6.83611 21.4153L9.76667 32.4819H13.5639L19.2236 18.5722H15.4097L11.8903 28.0778L11.5208 26.1458L10.2653 19.7444C10.1389 19.0653 9.55139 18.5569 8.84444 18.5569C8.77222 18.5569 8.7 18.5625 8.63056 18.5722L8.63889 18.5708H2.82361L2.78056 18.8528C7.25833 19.9903 10.2 22.4444 11.525 26.1444C11.0958 25.0444 10.4694 24.1069 9.68333 23.3333L9.68194 23.3319C8.89444 22.5236 7.94861 21.875 6.89444 21.4319L6.83889 21.4111L6.83611 21.4153ZM42.8597 27.5555H39.8597C40.0625 27.0204 40.5403 25.7241 41.2931 23.6667L41.3569 23.4708C41.4153 23.3264 41.4875 23.1375 41.5792 22.9069C41.6708 22.6764 41.7319 22.4875 41.7736 22.343L42.0347 23.5361L42.8583 27.55L42.8597 27.5555Z" fill="#2563E8"/>
</svg>
