<svg width="50" height="50" viewBox="0 0 50 50" fill="none" xmlns="http://www.w3.org/2000/svg">
<path d="M25.0005 39.5833C23.8499 39.5833 22.9172 40.516 22.9172 41.6667C22.9172 42.8173 23.8499 43.75 25.0005 43.75V39.5833ZM25.0213 43.75C26.172 43.75 27.1047 42.8173 27.1047 41.6667C27.1047 40.516 26.172 39.5833 25.0213 39.5833V43.75ZM30.6057 35.5C31.457 36.2742 32.7745 36.2119 33.5486 35.3608C34.323 34.5096 34.2605 33.1921 33.4095 32.4177L30.6057 35.5ZM37.6128 27.7923C38.4638 28.5665 39.7816 28.5042 40.5557 27.6529C41.3301 26.8019 41.2676 25.4842 40.4166 24.71L37.6128 27.7923ZM16.5916 32.4177C15.7405 33.1921 15.6781 34.5096 16.4523 35.3608C17.2266 36.2119 18.5442 36.2742 19.3953 35.5L16.5916 32.4177ZM9.58457 24.71C8.73343 25.4842 8.67107 26.8019 9.44528 27.6529C10.2195 28.5042 11.5371 28.5665 12.3883 27.7923L9.58457 24.71ZM25.0005 43.75H25.0213V39.5833H25.0005V43.75ZM25.0005 33.3333C27.1603 33.3333 29.1241 34.1523 30.6057 35.5L33.4095 32.4177C31.1907 30.3996 28.2372 29.1667 25.0005 29.1667V33.3333ZM25.0005 22.9167C29.8586 22.9167 34.2809 24.7615 37.6128 27.7923L40.4166 24.71C36.3476 21.0087 30.9353 18.75 25.0005 18.75V22.9167ZM19.3953 35.5C20.877 34.1523 22.8407 33.3333 25.0005 33.3333V29.1667C21.7638 29.1667 18.8104 30.3996 16.5916 32.4177L19.3953 35.5ZM12.3883 27.7923C15.7202 24.7615 20.1425 22.9167 25.0005 22.9167V18.75C19.0657 18.75 13.6535 21.0087 9.58457 24.71L12.3883 27.7923Z" fill="black"/>
</svg>
